<?xml version="1.0" standalone="no"?>
<!DOCTYPE svg PUBLIC "-//W3C//DTD SVG 20010904//EN"
 "http://www.w3.org/TR/2001/REC-SVG-20010904/DTD/svg10.dtd">
<svg version="1.0" xmlns="http://www.w3.org/2000/svg"
 width="826.000000pt" height="826.000000pt" viewBox="0 0 826.000000 826.000000"
 preserveAspectRatio="xMidYMid meet">
<metadata>
Created by potrace 1.14, written by Peter Selinger 2001-2017
</metadata>
<g transform="translate(0.000000,826.000000) scale(0.100000,-0.100000)"
fill="#000000" stroke="none">
<path d="M4177 6724 c-31 -69 -57 -131 -57 -139 0 -7 6 -18 14 -24 8 -6 24
-35 36 -63 31 -71 26 -171 -12 -248 -31 -64 -104 -141 -157 -166 -86 -42 -204
-24 -256 38 -22 26 -26 40 -24 82 l3 50 -73 44 c-39 24 -75 41 -79 37 -4 -4
-9 -46 -10 -94 -4 -84 -3 -87 21 -98 79 -36 120 -176 81 -273 -23 -57 -8 -72
43 -41 183 109 416 162 626 140 128 -13 248 -48 376 -110 65 -32 107 -47 113
-41 6 6 3 31 -7 67 -28 96 4 204 74 250 l36 24 -3 91 c-2 49 -7 90 -12 90 -5
0 -40 -19 -79 -42 l-69 -42 1 -50 c2 -88 -52 -136 -164 -144 -75 -6 -144 24
-204 89 -114 122 -136 285 -54 398 l27 39 -60 131 c-33 72 -64 131 -67 131 -4
0 -32 -57 -64 -126z"/>
<path d="M4026 5889 c-104 -12 -192 -47 -245 -98 -25 -24 -39 -39 -31 -34 37
24 94 36 215 43 143 9 176 18 218 58 l28 27 -23 6 c-30 9 -76 8 -162 -2z"/>
<path d="M4271 5891 c-20 -13 -2 -34 53 -61 32 -15 75 -22 178 -29 100 -7 148
-15 182 -30 l47 -20 -16 21 c-24 35 -93 77 -164 99 -74 23 -257 36 -280 20z"/>
<path d="M4169 5760 c-76 -39 -155 -58 -308 -74 -91 -9 -140 -19 -163 -33 -34
-20 -71 -76 -84 -127 l-7 -29 39 31 c68 54 105 64 274 71 167 8 198 17 248 69
22 24 67 111 60 117 -2 2 -28 -10 -59 -25z"/>
<path d="M4245 5767 c15 -52 62 -113 105 -137 41 -22 60 -25 200 -31 168 -7
205 -16 273 -70 43 -35 46 -24 13 48 -33 70 -69 87 -213 102 -139 14 -250 42
-326 81 -56 28 -58 28 -52 7z"/>
<path d="M3593 5708 c-45 -48 -79 -113 -123 -234 -40 -110 -60 -141 -95 -144
-42 -4 -58 1 -87 31 -35 34 -48 27 -48 -28 0 -58 84 -105 159 -88 77 17 116
84 167 287 19 78 41 156 49 175 8 18 13 33 11 33 -1 0 -16 -15 -33 -32z"/>
<path d="M4864 5703 c7 -16 26 -84 41 -153 45 -208 80 -277 151 -300 100 -33
212 55 164 130 -8 13 -12 11 -26 -9 -20 -28 -68 -49 -99 -43 -36 6 -60 40 -85
117 -44 136 -123 285 -151 285 -5 0 -3 -12 5 -27z"/>
<path d="M3777 5499 c-124 -29 -192 -108 -262 -304 -24 -65 -59 -97 -146 -131
-74 -29 -119 -70 -119 -107 0 -20 4 -22 50 -19 31 3 50 0 50 -7 0 -5 -9 -33
-20 -61 -11 -28 -20 -64 -20 -81 l0 -31 33 44 c18 24 72 69 120 100 129 86
155 128 177 293 6 44 22 103 34 131 24 51 84 121 141 162 32 23 23 25 -38 11z"/>
<path d="M4660 5484 c50 -40 102 -97 124 -136 l19 -33 -29 27 c-16 15 -54 39
-84 54 -64 32 -163 38 -243 15 -63 -18 -131 -79 -153 -137 -16 -43 -16 -51 2
-167 25 -163 25 -340 1 -386 -16 -29 -22 -32 -50 -28 -18 2 -54 13 -82 24 -44
17 -50 23 -50 47 l1 28 -23 -26 c-13 -15 -23 -40 -23 -57 l0 -29 -92 0 c-118
0 -173 -23 -241 -101 -47 -53 -123 -195 -147 -274 -29 -94 -104 -144 -167
-111 -30 15 -50 57 -38 76 13 22 -15 8 -34 -16 -40 -51 -36 -117 8 -151 27
-21 120 -15 184 11 l58 24 -54 -57 c-34 -36 -59 -72 -66 -97 -18 -66 -13 -71
27 -28 20 22 71 63 112 91 137 93 168 141 178 283 l7 85 27 -38 26 -39 4 96
c3 89 5 98 31 123 l27 28 150 1 c106 0 153 4 164 13 13 11 25 11 61 2 25 -6
93 -11 152 -10 174 2 196 -16 201 -158 l4 -95 26 39 27 38 6 -85 c9 -139 41
-190 174 -280 41 -28 93 -69 115 -92 22 -24 40 -36 40 -28 0 47 -27 98 -77
151 l-54 57 62 -25 c38 -15 82 -25 113 -25 43 0 54 4 78 31 15 17 28 40 28 51
0 28 -24 82 -42 98 -14 11 -17 8 -22 -23 -14 -75 -118 -83 -169 -12 -13 18
-36 64 -50 103 -92 241 -197 344 -351 344 l-71 0 -1 31 c-1 23 -11 40 -37 63
-42 35 -53 61 -73 164 -14 75 -19 273 -7 285 3 4 12 -1 20 -11 10 -12 16 -13
19 -5 13 30 50 67 80 79 54 23 77 19 209 -30 12 -5 4 8 -21 32 -45 44 -40 56
17 43 37 -8 115 -46 123 -59 2 -4 10 -46 16 -92 20 -149 62 -211 200 -293 30
-18 71 -54 90 -80 32 -43 35 -45 38 -24 2 13 -8 54 -22 91 l-24 68 54 -4 c51
-3 54 -2 54 21 0 35 -57 82 -139 114 -85 34 -108 60 -147 171 -34 97 -75 160
-132 203 -40 30 -68 41 -147 58 l-30 7 35 -28z"/>
<path d="M3909 5366 c-72 -26 -125 -67 -164 -129 -18 -27 -18 -27 34 7 46 32
133 57 147 43 3 -3 -14 -23 -38 -46 l-43 -41 55 24 c71 30 151 47 190 40 17
-4 41 -19 54 -35 22 -26 25 -27 39 -11 44 49 20 108 -57 143 -49 22 -162 25
-217 5z"/>
<path d="M4500 5163 c-40 -18 -40 -18 61 -47 68 -20 99 -20 124 -3 60 45 -100
87 -185 50z"/>
<path d="M3980 5133 c-8 -3 -31 -12 -50 -20 l-35 -14 24 -20 c30 -24 62 -24
147 2 103 30 103 30 59 45 -41 13 -118 17 -145 7z"/>
<path d="M3597 4891 c-157 -99 -210 -157 -242 -266 l-14 -44 61 49 c34 28 63
48 65 47 2 -2 -7 -37 -19 -77 -17 -56 -32 -85 -63 -117 -37 -38 -47 -43 -87
-43 -75 0 -105 58 -52 99 l27 21 -32 0 c-34 0 -70 -15 -84 -34 -10 -15 1 -74
19 -101 25 -39 89 -57 156 -45 32 6 38 5 38 -9 0 -10 -6 -23 -12 -30 -20 -21
61 -6 92 17 14 10 48 64 75 120 28 56 68 122 89 148 45 54 163 134 235 160 28
10 51 21 51 25 0 8 -89 29 -118 29 -9 -1 -34 -7 -55 -15 l-38 -13 6 41 c3 23
9 57 12 75 3 17 4 32 2 32 -2 -1 -53 -32 -112 -69z"/>
<path d="M4764 4915 c4 -28 9 -63 12 -78 5 -25 4 -28 -13 -19 -36 18 -88 22
-145 11 -33 -7 -56 -15 -51 -19 4 -4 33 -17 63 -29 149 -62 243 -146 315 -280
26 -49 57 -98 68 -110 19 -17 107 -46 107 -35 0 2 -11 19 -24 39 -14 20 -32
62 -41 93 -28 101 -45 138 -83 182 l-37 44 51 -28 c27 -15 69 -44 92 -65 47
-43 51 -36 21 43 -28 76 -90 141 -200 209 -52 32 -105 66 -118 75 l-24 16 7
-49z"/>
<path d="M4377 4564 c-3 -4 -61 -6 -129 -6 -106 1 -127 -2 -155 -20 -18 -11
-33 -20 -33 -21 0 -1 73 -4 163 -6 89 -2 170 -7 180 -13 10 -5 26 -23 36 -39
l18 -30 7 32 c3 17 6 49 6 70 l0 39 -43 0 c-24 0 -46 -3 -50 -6z"/>
<path d="M3982 4383 c-17 -55 -15 -81 8 -148 26 -75 26 -154 0 -205 -11 -22
-47 -67 -80 -100 -33 -33 -74 -84 -90 -113 l-31 -52 7 -156 c8 -196 -2 -237
-81 -316 -50 -49 -52 -53 -35 -68 10 -9 39 -23 66 -31 114 -34 191 -5 239 91
27 55 29 66 28 165 -1 58 -5 125 -10 150 l-9 45 -17 -69 c-16 -64 -56 -136
-77 -136 -5 0 -8 60 -7 133 2 147 11 176 95 305 22 35 48 87 58 115 9 29 31
68 50 87 37 39 69 105 80 164 l7 40 -41 -43 c-22 -24 -47 -41 -53 -39 -7 2
-18 25 -25 50 -6 26 -25 75 -41 109 l-29 63 -12 -41z"/>
<path d="M4512 4355 c-24 -83 -33 -188 -22 -264 13 -95 38 -149 105 -231 98
-119 113 -183 74 -311 -12 -38 -19 -84 -17 -101 l5 -32 -20 25 c-16 20 -18 33
-13 82 7 65 -3 182 -14 170 -4 -4 -20 -60 -35 -123 -20 -85 -26 -133 -23 -187
3 -67 6 -76 36 -105 29 -29 39 -33 102 -36 39 -3 91 1 114 8 43 12 116 63 116
81 0 5 -17 9 -37 9 -57 0 -106 29 -120 70 -16 47 -16 89 2 224 20 151 14 175
-77 296 -115 154 -143 222 -157 380 l-7 85 -12 -40z"/>
<path d="M4260 4280 c-1 -29 -57 -126 -121 -210 -80 -105 -100 -153 -106 -250
-4 -61 1 -101 27 -210 50 -212 34 -303 -76 -429 l-48 -53 45 7 c85 14 188 53
239 90 91 67 125 149 140 337 6 72 16 140 22 152 11 20 13 19 30 -22 23 -51
47 -161 49 -217 l1 -40 20 43 c31 68 51 179 45 252 -3 36 -25 123 -48 195 -38
117 -42 140 -42 227 0 107 -3 111 -58 51 -74 -79 -102 -192 -104 -418 -1 -151
-3 -175 -23 -217 -12 -27 -24 -48 -26 -48 -3 0 -3 26 0 58 5 43 0 84 -21 171
-36 149 -32 181 34 312 48 94 52 109 47 152 -5 47 -25 98 -26 67z"/>
<path d="M4636 4198 c-9 -21 -16 -54 -16 -75 0 -33 8 -44 79 -112 119 -114
143 -180 140 -385 -2 -103 0 -120 18 -144 28 -37 86 -42 133 -10 45 31 49 48
12 48 -35 0 -62 22 -62 50 0 10 7 49 16 87 23 98 15 180 -24 240 -17 27 -77
93 -133 148 -55 55 -111 120 -124 145 l-23 45 -16 -37z"/>
<path d="M3860 4138 c-14 -23 -68 -75 -120 -117 -147 -118 -196 -210 -188
-356 3 -64 7 -78 34 -111 16 -21 34 -39 40 -41 5 -2 9 40 9 100 0 96 2 107 33
170 21 42 63 99 114 154 85 92 117 147 118 200 0 46 -12 46 -40 1z"/>
<path d="M5267 3933 c-14 -13 -7 -25 8 -13 24 20 45 4 45 -35 0 -26 -9 -45
-37 -76 l-36 -40 54 3 c45 2 54 6 57 23 3 16 1 18 -9 8 -7 -7 -25 -13 -40 -13
l-26 0 33 36 c35 37 44 80 22 102 -13 13 -60 16 -71 5z"/>
<path d="M5496 3927 c-26 -19 -33 -99 -12 -132 36 -55 96 -17 96 60 0 69 -40
104 -84 72z m53 -28 c14 -40 14 -75 1 -100 -14 -26 -37 -24 -46 4 -9 27 -8
102 1 116 12 21 33 11 44 -20z"/>
<path d="M5707 3933 c-4 -3 -7 -13 -7 -22 0 -12 3 -11 13 3 21 28 51 16 55
-21 3 -26 -5 -41 -39 -78 l-42 -45 56 0 c47 0 55 3 60 21 4 17 3 19 -6 10 -6
-6 -24 -11 -40 -11 l-29 0 36 40 c39 43 45 70 20 94 -15 16 -65 22 -77 9z"/>
<path d="M5930 3923 c0 -14 2 -15 9 -5 5 8 17 12 27 10 14 -2 20 -13 22 -40 3
-31 -3 -44 -34 -78 l-37 -41 53 3 c29 2 55 8 57 15 3 8 -9 10 -38 6 l-43 -6
37 37 c58 58 48 116 -20 116 -25 0 -33 -4 -33 -17z"/>
<path d="M2602 3904 c-30 -21 -28 -39 8 -66 37 -27 40 -58 6 -58 -13 0 -27 6
-29 13 -3 7 -6 5 -6 -5 -1 -13 7 -18 27 -18 58 0 71 53 21 89 -28 21 -30 25
-16 39 13 13 19 13 31 2 9 -7 16 -8 16 -2 0 5 -7 13 -16 16 -20 8 -16 9 -42
-10z"/>
<path d="M2371 3840 l-1 -70 39 0 c22 0 42 4 45 8 2 4 -8 8 -22 7 -22 0 -28 5
-30 29 -3 26 -1 28 22 24 14 -3 26 -1 26 3 0 5 -11 9 -25 9 -20 0 -25 5 -25
26 0 23 3 26 25 22 14 -3 25 -1 25 3 0 5 -18 9 -39 9 l-39 0 -1 -70z"/>
<path d="M2776 3902 c-3 -5 9 -6 25 -4 l31 5 -4 -67 c-2 -54 0 -66 12 -66 12
0 14 12 12 66 l-4 67 31 -5 c17 -2 31 -1 31 4 0 10 -127 11 -134 0z"/>
<path d="M3030 3840 l0 -70 41 0 c41 0 78 14 91 34 4 6 8 25 8 43 0 42 -30 63
-92 63 l-48 0 0 -70z m90 50 c48 -26 26 -110 -30 -110 -30 0 -30 0 -30 60 0
54 2 60 21 60 11 0 29 -4 39 -10z"/>
<path d="M4406 3261 c-55 -82 -99 -123 -172 -159 -59 -29 -70 -44 -26 -37 15
2 47 7 72 10 65 9 126 48 151 97 19 38 39 158 26 158 -3 0 -26 -31 -51 -69z"/>
<path d="M1565 2808 c-3 -7 -8 -188 -12 -401 -9 -422 -6 -407 -65 -407 -16 0
-28 -4 -28 -10 0 -6 53 -10 140 -10 87 0 140 4 140 10 0 6 -13 10 -28 10 -59
0 -65 13 -74 176 -5 82 -7 202 -6 268 l3 118 85 -98 c93 -109 402 -445 444
-483 49 -46 50 -35 57 381 l5 381 23 18 c13 11 32 19 42 19 10 0 19 5 19 10 0
6 -52 10 -135 10 -132 0 -175 -11 -95 -24 30 -5 43 -12 49 -29 4 -12 11 -143
14 -292 l7 -270 -27 30 c-240 274 -539 605 -545 605 -5 0 -11 -6 -13 -12z"/>
<path d="M5405 2810 c-3 -6 -10 -183 -13 -394 -8 -417 -8 -416 -64 -416 -17 0
-28 -5 -26 -11 3 -8 143 -13 269 -9 25 0 -5 20 -31 20 -55 0 -61 24 -66 262
-3 117 -6 232 -8 256 -2 23 0 42 3 42 4 0 40 -39 81 -87 84 -99 378 -419 439
-478 29 -28 44 -36 52 -28 7 7 12 124 15 344 6 454 9 469 70 469 13 0 24 5 24
10 0 6 -52 10 -135 10 -83 0 -135 -4 -135 -10 0 -5 11 -10 24 -10 13 0 34 -9
47 -19 24 -19 24 -21 30 -293 4 -150 6 -274 4 -276 -1 -1 -61 64 -132 145
-322 365 -424 478 -433 481 -4 2 -11 -2 -15 -8z"/>
<path d="M2685 2803 c-139 -2 -243 -7 -249 -13 -7 -7 0 -10 20 -10 16 0 40 -7
52 -16 l22 -15 0 -355 c0 -226 -4 -362 -10 -375 -7 -12 -21 -19 -41 -19 -17 0
-29 -4 -27 -9 2 -6 107 -12 239 -15 205 -5 238 -4 249 9 16 19 28 171 13 162
-6 -4 -14 -22 -17 -42 -10 -52 -37 -65 -132 -65 -67 0 -86 4 -108 21 l-26 20
0 155 0 156 93 -7 c102 -8 127 -21 127 -67 0 -15 4 -28 9 -28 8 0 21 101 21
163 0 27 -1 28 -22 13 -17 -12 -48 -16 -125 -16 l-103 0 0 146 0 146 93 -7
c104 -8 132 -21 142 -66 4 -17 11 -27 15 -22 9 10 21 164 12 161 -4 -2 -115
-4 -247 -5z"/>
<path d="M3711 2751 c-19 -95 -10 -133 17 -72 17 39 56 51 163 51 l89 0 0
-337 c0 -368 -3 -385 -53 -391 -16 -2 -27 -8 -25 -13 2 -6 7 -10 11 -10 4 1
77 1 163 1 101 0 153 3 149 10 -3 6 -21 10 -40 10 -64 0 -65 3 -65 387 l0 343
83 0 c97 0 150 -20 155 -60 2 -14 8 -29 13 -35 5 -5 9 26 9 80 l0 90 -329 0
-329 0 -11 -54z"/>
<path d="M6518 2802 c-231 -2 -301 -11 -209 -26 21 -3 44 -12 50 -20 9 -10 11
-111 9 -375 -3 -391 -2 -380 -56 -381 -13 0 -22 -4 -20 -9 2 -6 107 -12 239
-15 191 -5 239 -3 248 8 15 18 28 171 14 163 -6 -4 -13 -19 -16 -34 -12 -60
-27 -68 -130 -71 -138 -5 -137 -7 -137 194 l0 156 93 -7 c101 -7 127 -22 127
-73 0 -16 4 -22 9 -16 5 5 12 49 16 98 l7 89 -23 -17 c-18 -12 -47 -16 -126
-16 l-103 0 0 146 0 146 93 -7 c107 -8 137 -22 137 -65 0 -40 18 -38 24 3 10
64 13 127 7 130 -3 1 -117 1 -253 -1z"/>
<path d="M3070 2790 c0 -5 9 -10 20 -10 33 0 70 -22 76 -45 3 -12 4 -175 2
-362 -3 -364 -5 -373 -54 -373 -24 0 -42 -16 -24 -22 23 -8 320 4 320 12 0 6
-17 10 -39 10 -67 0 -66 -8 -66 389 l0 356 38 3 c57 5 112 -31 142 -92 59
-118 10 -261 -98 -283 -21 -4 -39 -12 -40 -18 -4 -17 51 -17 111 0 169 50 240
273 122 386 -23 22 -55 41 -83 48 -58 14 -427 15 -427 1z"/>
<path d="M4430 2790 c0 -5 11 -10 24 -10 13 0 34 -9 47 -19 24 -19 24 -20 29
-303 5 -270 7 -285 29 -336 28 -61 92 -123 148 -141 21 -6 70 -14 108 -18 96
-8 167 13 229 68 86 76 105 141 107 364 1 88 4 207 8 265 l6 105 38 9 c70 18
37 26 -103 26 -136 0 -181 -11 -100 -24 25 -4 43 -14 51 -27 7 -14 9 -106 7
-297 -4 -308 -7 -323 -72 -380 -48 -42 -106 -57 -163 -42 -100 25 -138 81
-154 222 -12 100 -7 472 5 500 4 10 23 20 42 24 76 14 25 24 -126 24 -100 0
-160 -4 -160 -10z"/>
<path d="M2860 1583 c-56 -22 -81 -83 -55 -133 25 -48 88 -64 144 -35 55 28
65 119 16 151 -26 17 -82 26 -105 17z m80 -33 c43 -43 15 -140 -40 -140 -34 0
-70 44 -70 85 0 20 5 45 10 56 15 26 73 26 100 -1z"/>
<path d="M3403 1576 c-92 -42 -57 -176 45 -176 61 0 102 38 102 94 0 32 -6 48
-24 65 -30 28 -82 35 -123 17z m90 -24 c24 -26 31 -75 17 -103 -25 -46 -55
-51 -96 -16 -21 18 -27 32 -27 65 0 23 6 48 13 57 17 21 73 19 93 -3z"/>
<path d="M4072 1574 c-34 -23 -28 -60 13 -86 40 -27 50 -45 34 -64 -16 -19
-39 -18 -62 4 -19 16 -19 16 -16 -3 5 -27 69 -33 93 -10 28 28 19 60 -25 98
-25 20 -39 39 -35 46 9 15 49 14 64 -1 9 -9 12 -8 12 4 0 29 -44 36 -78 12z"/>
<path d="M4865 1503 c-21 -49 -43 -91 -49 -95 -6 -4 1 -8 15 -8 15 0 27 6 26
13 -1 41 3 47 39 47 30 0 37 -4 45 -30 8 -23 17 -30 37 -30 23 0 24 2 10 18
-8 9 -29 52 -48 95 -18 42 -34 77 -35 77 -2 0 -19 -39 -40 -87z m45 18 c0 -5
3 -16 6 -25 5 -12 0 -16 -20 -16 -24 0 -25 2 -14 25 11 24 28 34 28 16z"/>
<path d="M5130 1509 c-6 -45 -14 -87 -17 -95 -3 -9 2 -14 14 -14 16 0 19 5 15
30 -2 16 -1 42 3 57 7 27 8 26 37 -32 l31 -59 32 64 33 65 7 -62 c7 -59 9 -63
33 -63 18 0 22 3 15 13 -6 6 -16 48 -22 91 -6 44 -14 82 -16 84 -3 3 -20 -28
-39 -68 l-34 -74 -36 72 c-20 40 -38 72 -40 72 -2 0 -9 -36 -16 -81z"/>
<path d="M5704 1581 c-12 -12 0 -17 32 -13 l36 4 -4 -86 -3 -86 30 0 c22 0 26
3 17 12 -7 7 -12 42 -12 86 l0 74 35 -4 c19 -2 35 -1 35 3 0 8 -159 17 -166
10z"/>
<path d="M2488 1489 l-3 -91 67 4 c86 5 118 30 118 94 0 61 -31 84 -116 84
l-63 0 -3 -91z m127 56 c33 -32 33 -78 0 -111 -17 -17 -34 -24 -53 -22 -27 3
-27 4 -30 81 l-3 77 31 0 c19 0 40 -9 55 -25z"/>
<path d="M3131 1501 c1 -43 -2 -84 -5 -90 -5 -8 11 -11 52 -11 39 0 62 4 65
13 3 9 -6 11 -34 9 l-39 -4 0 81 c0 75 -2 81 -20 81 -19 0 -21 -6 -19 -79z"/>
<path d="M3688 1490 l-3 -90 30 1 c17 0 24 3 18 6 -18 7 -17 73 0 73 8 0 28
-18 46 -40 19 -24 40 -40 54 -40 19 0 17 5 -18 40 -34 35 -38 43 -27 58 38 53
25 76 -46 80 l-51 3 -3 -91z m86 58 c14 -23 -3 -52 -33 -56 -19 -3 -21 1 -21
38 0 37 2 41 21 38 12 -2 27 -11 33 -20z"/>
<path d="M4298 1499 c3 -60 0 -84 -10 -90 -8 -6 1 -9 27 -9 26 0 35 3 27 9
-10 6 -13 30 -10 90 3 75 2 81 -17 81 -19 0 -20 -6 -17 -81z"/>
<path d="M4470 1572 c0 -4 16 -6 35 -4 l35 4 0 -74 c0 -44 -5 -79 -12 -86 -9
-9 -3 -12 28 -11 21 0 33 3 27 6 -9 3 -13 30 -13 84 0 76 1 79 23 79 13 0 28
-5 35 -12 9 -9 12 -8 12 5 0 15 -12 17 -85 17 -47 0 -85 -4 -85 -8z"/>
<path d="M5478 1490 l-3 -91 54 3 c30 2 56 8 58 14 2 6 -10 8 -32 6 -34 -4
-35 -4 -35 33 0 36 1 37 30 33 20 -3 30 0 30 9 0 8 -12 13 -30 13 -27 0 -30 3
-30 31 0 29 2 31 30 27 17 -3 30 -1 30 4 0 4 -22 8 -49 8 l-50 0 -3 -90z"/>
</g>
</svg>
