<?xml version="1.0" standalone="no"?>
<!DOCTYPE svg PUBLIC "-//W3C//DTD SVG 20010904//EN"
 "http://www.w3.org/TR/2001/REC-SVG-20010904/DTD/svg10.dtd">
<svg version="1.0" xmlns="http://www.w3.org/2000/svg"
 width="100.000000pt" height="60.000000pt" viewBox="0 0 100.000000 60.000000"
 preserveAspectRatio="xMidYMid meet">

<g transform="translate(0.000000,60.000000) scale(0.100000,-0.100000)"
fill="#000000" stroke="none">
<path d="M220 587 c-138 -39 -233 -179 -217 -319 26 -218 272 -332 455 -212
24 16 24 16 4 37 -27 30 -65 107 -57 115 4 4 12 -1 19 -12 52 -85 67 -106 76
-106 9 0 24 21 76 106 7 11 15 16 19 12 11 -11 -4 -45 -41 -93 l-34 -45 23
-14 c91 -60 192 -66 291 -17 221 109 220 419 -2 528 -80 39 -174 39 -255 -1
-57 -27 -67 -39 -46 -52 16 -9 69 -95 69 -111 0 -26 -19 -12 -39 31 -25 50
-55 81 -71 71 -6 -4 -25 -31 -41 -61 -31 -55 -56 -73 -44 -31 9 29 42 82 60
97 24 20 19 27 -37 54 -64 31 -147 40 -208 23z m194 -232 c-4 -8 -1 -15 6 -15
9 0 7 -7 -5 -20 -13 -14 -16 -28 -11 -55 6 -32 5 -36 -11 -33 -15 3 -18 13
-17 56 2 63 9 82 28 82 10 0 13 -6 10 -15z m281 6 c6 -11 -12 -25 -38 -26 -44
-4 -46 -53 -4 -73 30 -15 28 -32 -5 -32 -54 0 -75 65 -37 114 21 26 71 37 84
17z m270 -38 c-13 -90 -13 -90 -57 -90 -50 0 -68 28 -46 73 11 23 20 29 46 29
24 0 32 4 32 17 0 10 7 18 16 18 14 0 15 -8 9 -47z m-865 7 c0 -16 4 -30 8
-30 4 0 13 14 19 30 9 23 17 30 38 30 20 0 25 -4 21 -17 -3 -10 -8 -39 -12
-65 -4 -33 -11 -48 -21 -48 -12 0 -14 8 -10 35 3 19 4 35 2 35 -3 0 -11 -16
-19 -35 -21 -49 -44 -46 -48 8 l-4 42 -8 -42 c-5 -26 -14 -43 -22 -43 -17 0
-17 14 -3 80 9 43 14 50 35 50 20 0 24 -5 24 -30z m175 -1 c4 -6 4 -30 1 -54
l-7 -44 -42 2 c-31 2 -43 6 -45 20 -5 25 16 47 44 47 13 0 24 5 24 11 0 7 -10
9 -25 7 -17 -4 -25 -1 -25 8 0 17 65 19 75 3z m85 2 c0 -5 -10 -11 -22 -14
l-21 -6 24 -20 c20 -16 22 -23 13 -38 -14 -24 -74 -31 -74 -9 0 11 9 16 28 17
l27 0 -22 16 c-26 17 -29 33 -11 51 14 14 58 16 58 3z m148 -3 c7 -7 12 -20
12 -30 0 -14 -8 -18 -35 -18 -19 0 -35 -4 -35 -10 0 -5 14 -10 31 -10 37 0 35
-24 -3 -28 -30 -4 -58 21 -58 50 0 45 58 76 88 46z m82 1 c0 -4 -7 -12 -15
-19 -8 -7 -17 -27 -21 -46 -4 -20 -12 -34 -21 -34 -11 0 -13 10 -7 48 3 26 8
50 10 53 5 9 54 6 54 -2z m188 -23 c7 -55 -5 -76 -42 -76 -61 0 -73 55 -15 67
16 3 29 10 29 15 0 6 -11 8 -25 6 -17 -4 -25 -1 -25 9 0 10 10 13 38 11 32 -3
37 -6 40 -32z m82 25 c0 -4 -9 -14 -20 -24 -11 -9 -20 -28 -20 -41 0 -24 -16
-43 -27 -33 -3 3 -2 28 2 56 6 47 8 50 36 49 16 -1 29 -4 29 -7z"/>
<path d="M890 285 c0 -29 15 -33 29 -6 11 20 5 31 -16 31 -7 0 -13 -11 -13
-25z"/>
<path d="M215 270 c-3 -5 1 -10 9 -10 9 0 16 5 16 10 0 6 -4 10 -9 10 -6 0
-13 -4 -16 -10z"/>
<path d="M460 310 c0 -5 7 -10 15 -10 8 0 15 5 15 10 0 6 -7 10 -15 10 -8 0
-15 -4 -15 -10z"/>
<path d="M715 270 c-3 -5 1 -10 9 -10 8 0 18 5 21 10 3 6 -1 10 -9 10 -8 0
-18 -4 -21 -10z"/>
</g>
</svg>
