<?xml version="1.0" standalone="no"?>
<!DOCTYPE svg PUBLIC "-//W3C//DTD SVG 20010904//EN"
 "http://www.w3.org/TR/2001/REC-SVG-20010904/DTD/svg10.dtd">
<svg version="1.0" xmlns="http://www.w3.org/2000/svg"
 width="512.000000pt" height="512.000000pt" viewBox="0 0 512.000000 512.000000"
 preserveAspectRatio="xMidYMid meet">

<g transform="translate(0.000000,512.000000) scale(0.100000,-0.100000)"
fill="#000000" stroke="none">
<path d="M1634 4816 c-60 -28 -108 -83 -128 -146 -15 -48 -71 -398 -65 -405 6
-5 3610 -767 3613 -763 5 6 66 413 66 439 0 77 -66 176 -141 211 -46 22 -3193
688 -3250 688 -25 0 -66 -10 -95 -24z"/>
<path d="M1287 3653 c-9 -38 -44 -201 -78 -364 l-62 -297 -481 -133 c-265 -73
-495 -138 -513 -146 -46 -19 -101 -70 -126 -117 -46 -88 -47 -85 256 -1170
207 -743 283 -1000 304 -1035 38 -61 104 -101 180 -108 54 -5 173 27 1633 432
866 240 1591 443 1610 451 45 19 96 69 121 117 38 73 35 115 -21 316 -28 101
-48 186 -46 189 3 2 83 -12 178 -33 210 -45 271 -45 344 1 90 56 92 59 219
659 62 297 113 540 112 541 -1 1 -283 61 -627 133 -344 73 -626 134 -628 135
-1 2 -16 48 -31 102 -16 55 -33 111 -39 125 -16 40 -60 87 -111 117 -77 45
-128 39 -467 -56 -159 -45 -300 -82 -312 -82 -12 0 -330 65 -707 145 -377 80
-687 145 -689 145 -3 0 -11 -30 -19 -67z m2118 -283 c3 -5 30 -95 59 -200 l53
-190 -36 -10 c-20 -5 -740 -205 -1601 -444 -860 -239 -1566 -433 -1568 -432
-1 2 -28 92 -58 201 -54 192 -55 198 -37 216 26 26 3142 890 3165 878 9 -5 20
-13 23 -19z m949 -546 c193 -41 219 -52 242 -96 16 -30 15 -40 -27 -237 -46
-217 -61 -252 -114 -265 -24 -6 -371 61 -428 83 -35 14 -57 49 -57 93 0 42 64
358 81 401 28 68 68 71 303 21z m-703 -326 c6 -23 76 -275 155 -561 138 -496
155 -569 136 -581 -8 -5 -3062 -854 -3132 -871 -14 -3 -32 0 -42 7 -12 9 -68
196 -177 588 -88 316 -159 575 -158 576 5 5 3175 883 3189 883 12 1 21 -12 29
-41z"/>
<path d="M1010 1350 c-96 -27 -187 -55 -203 -61 -37 -16 -57 -46 -57 -89 0
-35 90 -372 108 -407 20 -37 53 -58 90 -56 35 1 334 80 395 105 37 15 67 54
67 90 0 29 -91 368 -111 411 -13 29 -59 57 -91 56 -12 0 -102 -22 -198 -49z"/>
</g>
</svg>
