<?xml version="1.0" standalone="no"?>
<!DOCTYPE svg PUBLIC "-//W3C//DTD SVG 20010904//EN"
 "http://www.w3.org/TR/2001/REC-SVG-20010904/DTD/svg10.dtd">
<svg version="1.0" xmlns="http://www.w3.org/2000/svg"
 width="512.000000pt" height="341.000000pt" viewBox="0 0 512.000000 341.000000"
 preserveAspectRatio="xMidYMid meet">

<g transform="translate(0.000000,341.000000) scale(0.100000,-0.100000)"
fill="#000000" stroke="none">
<path d="M4819 2018 c-4 -101 10 -148 46 -148 14 0 25 5 25 10 0 6 -9 10 -20
10 -17 0 -20 7 -20 49 0 43 3 50 23 54 l22 4 -22 2 c-16 1 -23 7 -23 21 0 28
-30 26 -31 -2z"/>
<path d="M4961 2001 c-8 -5 -20 -7 -28 -4 -10 4 -13 -10 -13 -61 0 -37 4 -66
10 -66 6 0 10 23 10 50 0 43 3 52 23 59 33 13 47 -5 47 -60 0 -27 5 -49 10
-49 6 0 10 22 10 50 0 40 4 51 21 60 32 18 49 -4 49 -61 0 -30 4 -49 11 -49
12 0 9 114 -3 126 -6 6 -20 6 -73 3 -11 0 -29 2 -40 5 -11 4 -26 2 -34 -3z"/>
<path d="M225 1938 c-23 -21 -36 -68 -127 -465 -84 -366 -99 -445 -88 -458 10
-11 34 -15 106 -15 121 0 123 2 159 155 15 67 34 124 44 134 14 14 42 19 127
24 184 9 307 53 395 138 69 67 92 118 97 215 5 97 -7 142 -54 194 -69 76 -181
100 -466 100 -159 0 -168 -1 -193 -22z m395 -180 c55 -28 71 -72 51 -139 -22
-73 -83 -113 -190 -125 -69 -8 -106 -1 -115 21 -3 9 6 65 20 125 30 130 40
140 129 140 43 0 74 -7 105 -22z"/>
<path d="M2762 1944 c-7 -3 -17 -14 -22 -24 -5 -10 -55 -215 -110 -456 l-101
-439 23 -18 c19 -16 36 -18 104 -15 110 4 116 10 149 157 35 153 43 161 163
161 179 1 327 54 417 151 65 71 90 136 89 234 -1 112 -52 187 -153 227 -52 21
-75 22 -301 25 -135 1 -251 0 -258 -3z m398 -189 c38 -20 50 -43 50 -98 0 -89
-78 -155 -195 -165 -35 -2 -75 -2 -89 2 -33 8 -34 32 -5 155 28 120 45 136
142 127 38 -3 82 -13 97 -21z"/>
<path d="M4454 1938 c-12 -5 -27 -20 -33 -32 -14 -27 -191 -831 -191 -868 0
-35 28 -48 106 -48 60 0 108 19 118 47 4 10 50 211 102 447 110 500 111 466
-10 465 -39 0 -81 -5 -92 -11z"/>
<path d="M1215 1733 c-85 -11 -134 -26 -153 -46 -21 -23 -50 -132 -39 -144 4
-3 46 4 95 15 132 33 250 29 291 -10 21 -19 28 -62 12 -72 -5 -3 -53 -10 -107
-16 -316 -35 -443 -119 -444 -293 0 -78 26 -128 86 -163 41 -24 57 -27 126
-27 77 1 116 14 239 80 4 2 9 -10 12 -26 5 -25 13 -31 42 -37 59 -11 144 0
165 22 12 13 36 99 75 269 61 266 64 314 28 364 -26 35 -97 69 -169 81 -57 10
-197 11 -259 3z m175 -420 c0 -24 -18 -93 -32 -120 -14 -29 -96 -63 -153 -63
-101 0 -130 98 -45 154 41 27 106 43 183 45 39 1 47 -2 47 -16z"/>
<path d="M3701 1725 c-99 -15 -116 -29 -137 -110 -20 -76 -13 -83 68 -59 88
25 263 26 301 1 19 -12 27 -26 27 -47 0 -16 -4 -31 -9 -35 -6 -3 -65 -12 -133
-20 -195 -23 -298 -61 -361 -135 -53 -62 -72 -164 -43 -233 55 -133 254 -150
424 -36 l33 22 -6 -26 c-5 -20 -1 -29 19 -42 37 -25 158 -18 186 10 24 24 130
468 130 544 0 120 -116 182 -335 180 -44 -1 -118 -7 -164 -14z m221 -425 c-2
-14 -11 -47 -20 -75 -15 -43 -24 -53 -62 -72 -43 -22 -119 -30 -155 -17 -8 4
-23 20 -31 36 -19 37 -5 89 32 113 34 22 138 44 194 42 42 -2 45 -4 42 -27z"/>
<path d="M1747 1710 c-8 -12 -13 -29 -11 -38 19 -81 114 -666 114 -701 0 -36
-12 -64 -65 -157 -36 -62 -65 -122 -65 -134 0 -19 6 -20 95 -20 63 0 105 5
123 14 20 10 105 145 321 511 162 274 295 507 295 519 1 20 -4 21 -100 24
-139 4 -139 4 -278 -235 -61 -106 -116 -193 -122 -193 -15 0 -16 6 -50 214
-18 111 -33 175 -45 190 -15 18 -30 21 -107 24 -82 4 -91 2 -105 -18z"/>
</g>
</svg>
