<?xml version="1.0" standalone="no"?>
<!DOCTYPE svg PUBLIC "-//W3C//DTD SVG 20010904//EN"
 "http://www.w3.org/TR/2001/REC-SVG-20010904/DTD/svg10.dtd">
<svg version="1.0" xmlns="http://www.w3.org/2000/svg"
 width="512.000000pt" height="512.000000pt" viewBox="0 0 512.000000 512.000000"
 preserveAspectRatio="xMidYMid meet">

<g transform="translate(0.000000,512.000000) scale(0.100000,-0.100000)"
fill="#000000" stroke="none">
<path d="M2320 5005 c-641 -109 -1143 -603 -1266 -1245 -8 -41 -18 -183 -24
-314 -5 -132 -11 -241 -13 -243 -2 -1 -37 4 -78 13 -142 30 -283 -16 -380
-125 -61 -69 -90 -141 -96 -246 -6 -96 17 -179 75 -264 54 -80 129 -130 294
-196 79 -31 144 -58 146 -59 5 -5 -70 -182 -99 -233 -77 -135 -200 -255 -328
-322 -42 -21 -137 -60 -211 -86 -149 -52 -187 -71 -243 -124 -134 -126 -123
-339 25 -477 76 -72 192 -123 362 -160 61 -13 121 -27 132 -29 18 -4 25 -18
38 -75 28 -124 78 -203 169 -263 92 -61 102 -62 432 -62 l300 0 70 -33 c38
-18 132 -69 209 -114 327 -189 498 -248 726 -248 228 0 399 59 726 248 77 45
171 96 209 114 l70 33 300 0 c330 0 340 1 432 62 91 60 141 139 169 263 13 57
20 71 38 75 11 2 71 16 132 29 170 37 286 88 362 160 148 138 159 351 25 477
-56 53 -94 72 -243 124 -74 26 -169 65 -211 86 -128 67 -251 187 -328 322 -29
51 -104 228 -99 233 2 1 67 28 146 59 165 66 240 116 294 196 58 85 81 168 75
264 -6 105 -35 177 -96 246 -97 109 -238 155 -380 125 -41 -9 -76 -14 -78 -13
-1 2 -7 111 -13 243 -7 171 -15 267 -30 339 -65 311 -209 573 -436 797 -98 96
-143 132 -251 201 -181 116 -388 193 -610 226 -95 14 -348 12 -443 -4z m430
-270 c521 -85 941 -492 1045 -1015 9 -46 19 -191 25 -375 6 -165 15 -316 20
-335 10 -36 47 -78 87 -99 33 -17 88 -13 201 14 149 36 191 33 234 -19 40 -48
30 -141 -20 -189 -18 -17 -100 -56 -218 -103 -234 -93 -274 -127 -274 -226 1
-82 84 -306 165 -444 150 -253 330 -395 640 -504 197 -69 208 -77 180 -130
-30 -57 -120 -92 -372 -144 -93 -19 -180 -39 -195 -45 -31 -11 -44 -47 -53
-141 -9 -95 -31 -163 -60 -190 -30 -28 -19 -28 -385 -20 -272 5 -310 -6 -635
-193 -190 -109 -288 -154 -402 -183 -230 -58 -401 -16 -748 183 -196 113 -273
150 -362 175 -71 20 -96 21 -273 18 -366 -8 -355 -8 -385 20 -29 27 -51 95
-60 190 -9 94 -22 130 -53 141 -15 6 -102 26 -195 45 -252 52 -342 87 -372
144 -28 53 -17 61 180 130 315 111 496 255 648 518 75 129 157 352 157 430 0
99 -40 133 -274 226 -118 47 -200 86 -218 103 -50 48 -60 141 -20 189 43 52
85 55 234 19 113 -27 168 -31 201 -14 40 21 77 63 87 99 5 19 14 170 19 335 8
235 15 321 31 399 102 489 503 888 985 980 44 8 89 17 100 19 49 11 248 6 335
-8z"/>
</g>
</svg>
