<?xml version="1.0" standalone="no"?>
<!DOCTYPE svg PUBLIC "-//W3C//DTD SVG 20010904//EN"
 "http://www.w3.org/TR/2001/REC-SVG-20010904/DTD/svg10.dtd">
<svg version="1.0" xmlns="http://www.w3.org/2000/svg"
 width="512.000000pt" height="512.000000pt" viewBox="0 0 512.000000 512.000000"
 preserveAspectRatio="xMidYMid meet">

<g transform="translate(0.000000,512.000000) scale(0.100000,-0.100000)"
fill="#000000" stroke="none">
<path d="M2649 5099 c-20 -12 -45 -35 -55 -53 -18 -30 -19 -84 -24 -1756 l-5
-1725 -22 -66 c-80 -235 -302 -393 -548 -393 -160 1 -284 53 -400 169 -114
113 -166 241 -166 404 1 164 51 282 171 401 109 109 248 169 391 170 51 0 98
26 133 73 20 28 21 40 24 465 l2 437 -22 44 c-33 63 -72 81 -177 81 -163 0
-395 -46 -560 -112 -551 -218 -942 -698 -1047 -1283 -21 -122 -25 -402 -6
-520 83 -512 366 -934 807 -1200 295 -178 671 -261 1020 -225 352 36 687 183
947 417 269 241 447 549 530 919 22 98 23 111 26 942 1 463 4 842 6 842 2 0
46 -20 99 -45 130 -61 311 -120 459 -149 141 -29 387 -52 442 -42 48 9 103 58
116 104 8 25 10 183 8 469 -3 421 -4 432 -24 460 -38 50 -75 65 -197 74 -249
19 -458 118 -629 297 -166 175 -255 377 -273 624 -8 111 -27 151 -85 180 -32
16 -76 18 -470 18 -423 0 -436 -1 -471 -21z m735 -301 c19 -101 59 -246 85
-309 166 -399 519 -688 936 -768 l90 -18 3 -253 2 -253 -62 7 c-251 28 -540
133 -758 277 -75 49 -105 63 -144 67 -61 6 -107 -16 -139 -67 l-22 -36 -6
-990 c-6 -1081 -2 -1016 -65 -1210 -111 -339 -377 -645 -697 -799 -225 -109
-360 -140 -607 -140 -191 0 -307 18 -452 70 -606 219 -986 813 -919 1437 53
487 346 901 784 1107 138 65 328 120 412 120 l25 0 -2 -251 -3 -252 -70 -18
c-246 -63 -447 -230 -560 -463 -138 -284 -111 -629 69 -879 51 -72 159 -179
229 -226 160 -109 390 -165 582 -141 353 44 635 281 742 625 l28 90 3 1648 2
1647 255 0 255 0 4 -22z"/>
</g>
</svg>
