<?xml version="1.0" standalone="no"?>
<!DOCTYPE svg PUBLIC "-//W3C//DTD SVG 20010904//EN"
 "http://www.w3.org/TR/2001/REC-SVG-20010904/DTD/svg10.dtd">
<svg version="1.0" xmlns="http://www.w3.org/2000/svg"
 width="512.000000pt" height="341.000000pt" viewBox="0 0 512.000000 341.000000"
 preserveAspectRatio="xMidYMid meet">

<g transform="translate(0.000000,341.000000) scale(0.100000,-0.100000)"
fill="#000000" stroke="none">
<path d="M3215 2519 c-344 -42 -577 -264 -563 -537 8 -176 106 -287 368 -423
60 -31 125 -74 152 -100 44 -42 48 -49 48 -93 0 -43 -5 -53 -38 -86 -48 -48
-119 -70 -228 -70 -108 0 -215 21 -319 63 l-84 34 -5 -26 c-3 -14 -19 -89 -36
-165 -16 -77 -30 -145 -30 -151 0 -14 119 -51 233 -72 109 -20 339 -20 438 0
281 57 451 207 497 440 28 145 -9 266 -114 370 -51 50 -112 90 -294 191 -107
60 -160 112 -160 159 0 134 261 181 510 91 36 -13 67 -20 71 -16 6 7 69 299
69 320 0 11 -92 41 -185 61 -78 15 -242 21 -330 10z"/>
<path d="M7 2478 c-4 -12 -5 -23 -4 -24 1 0 59 -17 129 -37 163 -46 273 -92
316 -132 41 -37 42 -39 243 -822 l144 -563 220 0 220 0 327 783 c180 430 330
790 334 800 6 16 -7 17 -211 15 l-217 -3 -211 -537 c-117 -295 -215 -533 -218
-530 -3 4 -45 216 -93 472 -99 527 -100 530 -188 574 l-52 26 -367 0 -367 0
-5 -22z"/>
<path d="M2120 2495 c0 -6 -328 -1538 -337 -1573 l-5 -22 208 2 208 3 168 780
c92 429 167 788 168 798 0 16 -16 17 -205 17 -113 0 -205 -2 -205 -5z"/>
<path d="M4372 2489 c-81 -24 -84 -30 -415 -822 -169 -406 -311 -745 -314
-753 -5 -12 24 -14 212 -12 l218 3 41 115 41 115 266 3 266 2 25 -117 24 -118
193 -3 c180 -2 192 -1 187 15 -2 10 -78 370 -167 801 l-163 782 -191 -1 c-104
0 -205 -5 -223 -10z m80 -1017 c-91 -1 -167 -1 -169 1 -2 2 40 123 93 268 53
145 101 277 107 294 9 26 18 -4 72 -265 l62 -295 -165 -3z"/>
</g>
</svg>
